<?xml version="1.0" encoding="UTF-8"?>
<svg id="Layer_1" data-name="Layer 1" xmlns="http://www.w3.org/2000/svg" viewBox="0 0 527.14 420.19">
  <defs>
    <style>
      .cls-1 {
        fill: #191919;
        stroke-width: 0px;
      }

      .cls-2 {
        opacity: .25;
      }
    </style>
  </defs>
  <g class="cls-2">
    <path class="cls-1" d="M459.49,342.22l-.35.31,1.38,1.54c-.35-.61-.7-1.23-1.03-1.85Z"/>
  </g>
  <path class="cls-1" d="M341.7,414.12h-27.78c-40.6,0-73.63-33.03-73.63-73.63v-109.8h-121.8V64.7C118.5,29.02,147.53,0,183.21,0h279.23v3.66c-33.66,0-61.04,27.38-61.04,61.04v170.47l-1.89-.06c-15.94-.54-31.27,5.04-43.18,15.69-12.27,10.99-19.53,26.1-20.44,42.55-.91,16.45,4.64,32.26,15.63,44.54,12.13,13.55,29.54,21.03,47.71,20.51l2.08-.06-.21,2.07c-2.65,26.69-22.98,48.45-49.42,52.89-3.31.55-6.67.83-9.97.83ZM122.15,227.03h121.8v113.46c0,38.58,31.39,69.97,69.97,69.97h27.78c3.1,0,6.25-.26,9.36-.78,24.14-4.06,42.85-23.49,46.15-47.6-18.5-.07-36.04-7.92-48.43-21.75-24.03-26.83-21.74-68.22,5.1-92.24,12.13-10.86,27.66-16.76,43.85-16.66V64.7c0-28.16,18.08-52.17,43.24-61.04H183.2c-33.67,0-61.05,27.38-61.05,61.04v162.33Z"/>
  <path class="cls-1" d="M527.14,230.69h-129.41V64.71C397.73,29.03,426.76,0,462.43,0c17.28,0,33.53,6.73,45.75,18.95,12.22,12.22,18.95,28.47,18.95,45.75v165.98ZM401.39,227.03h122.09V64.71c0-16.31-6.35-31.63-17.88-43.16-11.53-11.53-26.86-17.88-43.16-17.88-33.66,0-61.05,27.38-61.05,61.04v162.32Z"/>
  <path class="cls-1" d="M313.92,414.12H73.63c-40.6,0-73.63-33.03-73.63-73.63v-113.46h243.96v113.46c0,38.58,31.39,69.97,69.97,69.97v3.66h0ZM3.66,230.69v109.8c0,38.58,31.39,69.97,69.97,69.97h217.35c-29.4-9.66-50.68-37.38-50.68-69.97v-109.8H3.66Z"/>
  <path class="cls-1" d="M358.72,87.19h-130.38c-1.01,0-1.83-.82-1.83-1.83s.82-1.83,1.83-1.83h130.38c1.01,0,1.83.82,1.83,1.83s-.82,1.83-1.83,1.83Z"/>
  <path class="cls-1" d="M358.72,117.17h-130.38c-1.01,0-1.83-.82-1.83-1.83s.82-1.83,1.83-1.83h130.38c1.01,0,1.83.82,1.83,1.83s-.82,1.83-1.83,1.83Z"/>
  <path class="cls-1" d="M358.72,147.16h-130.38c-1.01,0-1.83-.82-1.83-1.83s.82-1.83,1.83-1.83h130.38c1.01,0,1.83.82,1.83,1.83s-.82,1.83-1.83,1.83Z"/>
  <path class="cls-1" d="M358.72,177.14h-130.38c-1.01,0-1.83-.82-1.83-1.83s.82-1.83,1.83-1.83h130.38c1.01,0,1.83.82,1.83,1.83s-.82,1.83-1.83,1.83Z"/>
  <path class="cls-1" d="M358.72,207.13h-210.91c-1.01,0-1.83-.82-1.83-1.83s.82-1.83,1.83-1.83h210.91c1.01,0,1.83.82,1.83,1.83s-.82,1.83-1.83,1.83Z"/>
  <path class="cls-1" d="M323.62,264.43h-79.43c-1.01,0-1.83-.82-1.83-1.83s.82-1.83,1.83-1.83h79.43c1.01,0,1.83.82,1.83,1.83s-.82,1.83-1.83,1.83Z"/>
  <path class="cls-1" d="M323.62,297.07h-79.43c-1.01,0-1.83-.82-1.83-1.83s.82-1.83,1.83-1.83h79.43c1.01,0,1.83.82,1.83,1.83s-.82,1.83-1.83,1.83Z"/>
  <path class="cls-1" d="M323.62,329.71h-79.43c-1.01,0-1.83-.82-1.83-1.83s.82-1.83,1.83-1.83h79.43c1.01,0,1.83.82,1.83,1.83s-.82,1.83-1.83,1.83Z"/>
  <path class="cls-1" d="M185.44,369.51H27.67c-1.01,0-1.83-.82-1.83-1.83s.82-1.83,1.83-1.83h157.77c1.01,0,1.83.82,1.83,1.83s-.82,1.83-1.83,1.83Z"/>
  <path class="cls-1" d="M490.1,420.19c-.22,0-.44,0-.66-.02-3.14-.17-6.01-1.56-8.11-3.9l-47.74-53.32,25.7-23.01,47.74,53.32c2.09,2.34,3.15,5.36,2.98,8.49s-1.56,6.01-3.9,8.11l-8.18,7.32c-2.17,1.95-4.93,3-7.83,3h0ZM438.75,363.24l45.3,50.59c1.45,1.61,3.43,2.57,5.59,2.68,2.15.12,4.24-.61,5.85-2.06l8.18-7.32c1.61-1.45,2.57-3.43,2.68-5.59s-.61-4.24-2.06-5.85l-45.3-50.59-20.25,18.13Z"/>
  <path class="cls-1" d="M397.46,362.07c-18.59,0-36.24-7.86-48.68-21.75-24.03-26.83-21.74-68.22,5.1-92.24,12.61-11.28,28.86-17.19,45.74-16.62,17.99.6,34.5,8.31,46.51,21.72,17.51,19.56,21.63,47.56,10.49,71.34-3.74,7.97-8.98,15.01-15.58,20.91-6.61,5.92-14.18,10.35-22.52,13.18-6.17,2.1-12.63,3.27-19.2,3.45-.62.02-1.24.02-1.86.02h0ZM397.41,235.07c-15.19,0-29.71,5.54-41.08,15.73-12.27,10.99-19.53,26.1-20.44,42.55-.91,16.45,4.64,32.26,15.63,44.54,12.13,13.55,29.54,21.03,47.71,20.51,6.2-.17,12.3-1.27,18.12-3.26,7.86-2.67,15.01-6.86,21.25-12.44,6.23-5.58,11.18-12.22,14.71-19.74,10.52-22.45,6.62-48.89-9.91-67.34-11.33-12.66-26.92-19.93-43.9-20.5-.7-.02-1.4-.04-2.09-.04h0Z"/>
  <path class="cls-1" d="M397.45,340.87c-2.29,0-4.59-.18-6.87-.54-9.94-1.57-19.12-6.58-25.85-14.09-7.83-8.75-11.79-20.03-11.14-31.75s5.82-22.5,14.57-30.32c8.75-7.83,20.03-11.79,31.75-11.14,11.72.65,22.5,5.82,30.32,14.57,13.69,15.29,14.91,38.42,2.92,55.02-1.82,2.54-3.96,4.92-6.34,7.05-2.37,2.12-4.95,3.98-7.7,5.54-6.59,3.73-14.08,5.67-21.65,5.67h0ZM397.42,256.61c-9.92,0-19.38,3.61-26.83,10.28-8.02,7.18-12.76,17.05-13.35,27.8s3.04,21.09,10.22,29.1c7.83,8.74,18.93,13.37,30.15,13.37,6.75,0,13.55-1.68,19.69-5.15,2.51-1.43,4.89-3.14,7.06-5.08,2.19-1.96,4.14-4.13,5.81-6.45,11-15.22,9.88-36.43-2.68-50.45-7.18-8.02-17.05-12.77-27.8-13.36-.76-.04-1.52-.06-2.27-.06h0Z"/>
  <path class="cls-1" d="M408.86,308.59l-2.77,2.77c-.92.92-2.42.92-3.34,0l-7.3-7.3-7.3,7.3c-.92.92-2.42.92-3.34,0l-2.77-2.77c-.93-.93-.93-2.42,0-3.34l7.3-7.3-7.3-7.3c-.92-.92-.93-2.42,0-3.34l2.77-2.77c.92-.92,2.42-.92,3.34,0l7.3,7.3,7.3-7.3c.92-.92,2.42-.92,3.34,0l2.77,2.77c.93.93.92,2.42,0,3.34l-7.3,7.3,7.3,7.3c.93.92.93,2.42,0,3.34Z"/>
</svg>